<svg width="18" height="14" viewBox="0 0 18 14" fill="none" xmlns="http://www.w3.org/2000/svg">
<g clip-path="url(#clip0_264_7277)">
<path d="M1.5 1.5H16.5V11.7273H1.5V1.5Z" fill="#FF3D00"/>
<path d="M1.5 5.59082H16.5V7.63627H1.5V5.59082Z" fill="#ECEFF1"/>
<path d="M6.27271 1.5H8.31816V11.7273H6.27271V1.5Z" fill="#ECEFF1"/>
</g>
<path d="M15.5 0.75C16.4665 0.75 17.25 1.5335 17.25 2.5V10.7275C17.2499 11.6939 16.4664 12.4775 15.5 12.4775H2.5C1.53359 12.4775 0.750144 11.6939 0.75 10.7275V2.5C0.75 1.5335 1.5335 0.75 2.5 0.75H15.5Z" stroke="white" stroke-width="1.5"/>
<defs>
<clipPath id="clip0_264_7277">
<path d="M1.5 2.5C1.5 1.94772 1.94772 1.5 2.5 1.5H15.5C16.0523 1.5 16.5 1.94772 16.5 2.5V10.7273C16.5 11.2796 16.0523 11.7273 15.5 11.7273H2.5C1.94772 11.7273 1.5 11.2796 1.5 10.7273V2.5Z" fill="white"/>
</clipPath>
</defs>
</svg>
